<?xml version="1.0" encoding="iso-8859-1"?>
<svg version="1.1" xmlns="http://www.w3.org/2000/svg" xmlns:xlink="http://www.w3.org/1999/xlink" x="0" y="0" viewBox="0 0 218.182 218.182" xml:space="preserve">
  <g fill="silver">
    <path d="M155.524,0H62.658c-6.7,0-12.153,5.449-12.153,12.149v193.884c0,6.7,5.453,12.149,12.153,12.149h92.866
      c6.7,0,12.153-5.449,12.153-12.149V12.149C167.677,5.449,162.224,0,155.524,0z M159.596,206.033c0,2.243-1.827,4.068-4.072,4.068
      H62.658c-2.245,0-4.072-1.825-4.072-4.068V12.149c0-2.243,1.827-4.068,4.072-4.068h92.866c2.245,0,4.072,1.825,4.072,4.068
      V206.033z"/>
    <polygon points="86.869,16.162 78.788,16.162 78.788,28.283 66.667,28.283 66.667,36.364 78.788,36.364 78.788,48.485
      86.869,48.485 86.869,36.364 98.99,36.364 98.99,28.283 86.869,28.283 			"/>
    <rect x="105.051" y="68.687" width="28.283" height="8.081"/>
    <rect x="107.071" y="84.849" width="40.404" height="8.081"/>
    <rect x="105.051" y="117.172" width="36.364" height="8.081"/>
    <rect x="105.051" y="165.657" width="36.364" height="8.081"/>
    <rect x="105.051" y="181.818" width="20.202" height="8.081"/>
    <path d="M66.667,96.97H98.99V64.646H66.667V96.97z M74.747,72.727h16.162v16.162H74.747V72.727z"/>
    <path d="M66.667,145.455H98.99v-32.323H66.667V145.455z M74.747,121.212h16.162v16.162H74.747V121.212z"/>
    <path d="M66.667,193.939H98.99v-32.323H66.667V193.939z M74.747,169.697h16.162v16.162H74.747V169.697z"/>
  </g>
</svg>
