<?xml version="1.0" encoding="iso-8859-1"?>
<svg version="1.1" xmlns="http://www.w3.org/2000/svg" x="0" y="0" viewBox="0 0 360.049 360.049" xml:space="preserve">
	<g stroke="silver" fill="silver">
		<polygon points="0,350.193 31.293,352.906 85.996,297.943 68.992,280.94 		"/>
		<path d="M156.989,62.935l28.175,28.175L55.854,220.426l0.143,0.143c-7.767,10.762,4.465,37.668,28.452,61.655
			c23.987,23.987,50.893,36.219,61.655,28.452l0.148,0.148l129.311-129.311l28.175,28.175l12.897-12.897L169.887,50.038
			L156.989,62.935z M137.395,297.011c-5.729,0.005-22.748-7.26-41.605-26.122c-18.867-18.867-26.127-35.901-26.117-41.615
			l10.117-10.117l16.404,16.404l10.179-10.179l-16.404-16.404l14.397-14.397l16.404,16.404l10.179-10.179l-16.404-16.404
			l14.397-14.397l16.404,16.404l3.83-3.83l51.323,51.323L137.395,297.011z"/>
		<polygon points="249.948,7.142 236.186,20.905 259.779,44.498 224.922,79.355 287.836,142.269 322.693,107.413 346.286,131.005
			360.049,117.243 		"/>
	</g>
</svg>
