<?xml version="1.0" encoding="iso-8859-1"?>
<svg version="1.1" xmlns="http://www.w3.org/2000/svg" x="0" y="0" viewBox="0 0 512 512" xml:space="preserve">
	<g fill="silver">
		<path d="M345.946,62.27c-37.025,0-69.838,18.289-89.946,46.286C235.892,80.56,203.079,62.27,166.054,62.27H0v345.946h197.3
			c8.568,24.159,31.64,41.513,58.7,41.513s50.13-17.354,58.7-41.513H512V62.27H345.946z M235.243,366.703H41.513V103.784h124.541
			c38.151,0,69.189,31.038,69.189,69.189V366.703z M470.487,366.703h-193.73v-193.73c0-38.151,31.038-69.189,69.189-69.189h124.541
			V366.703z"/>
		<rect x="89.946" y="172.973" width="96.865" height="41.514"/>
		<rect x="89.946" y="256" width="96.865" height="41.514"/>
		<rect x="325.189" y="172.973" width="96.865" height="41.514"/>
		<rect x="325.189" y="256" width="96.865" height="41.514"/>
	</g>
</svg>
