<?xml version="1.0" encoding="iso-8859-1"?>
<svg version="1.1" xmlns="http://www.w3.org/2000/svg" x="0" y="0" viewBox="0 0 591.714 591.714" xml:space="preserve">
<g fill="#444444">
	<g>
		<path d="M69.848,521.868c21.73,21.729,47.046,38.795,75.244,50.722c29.216,12.358,60.228,18.624,92.171,18.624
			s62.955-6.266,92.172-18.624c28.197-11.927,53.514-28.992,75.244-50.722c21.73-21.73,38.795-47.046,50.723-75.244
			c12.357-29.218,18.623-60.228,18.623-92.172c0-25.906-4.17-51.394-12.391-75.752c-3.934-11.647-8.754-22.935-14.428-33.79
			l34.57-34.57c9.285,5.993,20.072,9.205,31.328,9.205c29.859,0,54.559-22.302,57.93-51.486l19.098-98.223
			c3.33-17.129-1.119-34.671-12.209-48.125C566.812,8.231,550.452,0.5,533.04,0.5c-3.572,0-7.174,0.333-10.703,0.99l-99.16,18.446
			c-10.41,1.156-20.213,5.037-28.555,11.336c-8.635,6.521-15.277,15.332-19.209,25.478c-3.934,10.147-4.963,21.133-2.98,31.77
			c1.385,7.417,4.18,14.418,8.227,20.699l-34.805,34.806c-10.75-5.559-21.922-10.284-33.439-14.139
			c-24.177-8.091-49.462-12.194-75.153-12.194c-31.943,0-62.955,6.266-92.171,18.623c-28.198,11.927-53.514,28.992-75.244,50.722
			c-21.73,21.73-38.796,47.046-50.723,75.244C6.767,291.497,0.501,322.508,0.501,354.451c0,31.944,6.266,62.955,18.624,92.172
			C31.052,474.822,48.118,500.138,69.848,521.868z M352.88,197.583l76.557-76.557c6.006-6.005,6.006-15.742,0-21.747l-10.615-10.615
			c-9.447-9.449-3.18-25.623,10.168-26.236l101.184-18.821c0.969-0.181,1.928-0.267,2.869-0.267c9.396,0,16.922,8.638,15.039,18.32
			l-19.512,100.348c-0.41,8.935-7.793,14.698-15.465,14.698c-3.787,0-7.646-1.406-10.771-4.53l-10.615-10.615
			c-3.002-3.003-6.938-4.504-10.873-4.504c-3.938,0-7.871,1.501-10.875,4.504l-76.555,76.557c-0.189,0.189-0.383,0.373-0.578,0.55
			c24.088,32.313,38.348,72.382,38.348,115.784c0,107.1-86.82,193.921-193.921,193.921c-107.1,0-193.921-86.821-193.921-193.921
			c0-107.1,86.822-193.921,193.921-193.921c43.038,0,82.794,14.029,114.964,37.75C352.438,198.044,352.653,197.81,352.88,197.583z"
			/>
		<path d="M237.263,591.714c-32.012,0-63.088-6.279-92.366-18.663c-28.257-11.952-53.626-29.053-75.403-50.829
			c-21.777-21.777-38.878-47.146-50.83-75.404C6.28,417.54,0.001,386.463,0.001,354.451c0-32.01,6.279-63.086,18.663-92.366
			c11.952-28.257,29.053-53.626,50.83-75.403c21.776-21.775,47.145-38.876,75.403-50.829c29.278-12.384,60.354-18.663,92.366-18.663
			c25.745,0,51.083,4.111,75.312,12.22c11.374,3.807,22.537,8.517,33.186,14.001l34.262-34.263
			c-3.992-6.288-6.71-13.196-8.08-20.538c-2-10.73-0.961-21.811,3.006-32.042c3.965-10.233,10.665-19.119,19.373-25.696
			c8.366-6.317,18.325-10.271,28.802-11.435l99.123-18.44C525.805,0.336,529.437,0,533.04,0c17.562,0,34.062,7.798,45.269,21.394
			c11.185,13.569,15.673,31.261,12.314,48.538l-19.098,98.223c-3.414,29.566-28.532,51.891-58.421,51.891
			c-11.126,0-21.926-3.134-31.259-9.067l-34.026,34.026c5.595,10.744,10.401,22.025,14.288,33.535
			c8.239,24.414,12.417,49.954,12.417,75.912c0,32.011-6.279,63.087-18.662,92.366c-11.954,28.26-29.056,53.629-50.83,75.403
			c-21.776,21.775-47.146,38.876-75.403,50.829C300.352,585.435,269.275,591.714,237.263,591.714z M237.262,118.191
			c-31.876,0-62.822,6.252-91.976,18.583c-28.139,11.902-53.401,28.931-75.085,50.615c-21.685,21.685-38.714,46.947-50.616,75.085
			C7.253,291.63,1.001,322.576,1.001,354.451c0,31.877,6.252,62.823,18.584,91.978c11.901,28.138,28.931,53.4,50.616,75.086
			c21.686,21.685,46.948,38.714,75.085,50.614c29.153,12.332,60.099,18.585,91.976,18.585s62.823-6.253,91.978-18.584
			c28.138-11.902,53.4-28.932,75.085-50.615c21.683-21.683,38.713-46.945,50.615-75.085c12.332-29.156,18.584-60.102,18.584-91.978
			c0-25.85-4.16-51.282-12.364-75.592c-3.91-11.577-8.754-22.921-14.397-33.718l-0.17-0.325l35.115-35.115l0.34,0.219
			c9.248,5.97,19.988,9.125,31.057,9.125c29.381,0,54.071-21.944,57.433-51.044l19.104-98.261
			c3.302-16.983-1.109-34.374-12.104-47.711C566.521,8.665,550.303,1,533.04,1c-3.542,0-7.112,0.33-10.611,0.981l-99.16,18.446
			c-10.334,1.148-20.123,5.035-28.345,11.244c-8.561,6.465-15.146,15.199-19.045,25.259c-3.898,10.058-4.921,20.95-2.955,31.497
			c1.372,7.346,4.115,14.25,8.155,20.52l0.219,0.339l-35.349,35.35l-0.324-0.168c-10.7-5.533-21.927-10.28-33.368-14.109
			C288.13,122.285,262.899,118.191,237.262,118.191z M237.264,548.873c-107.204,0-194.421-87.217-194.421-194.421
			s87.217-194.421,194.421-194.421c41.675,0,81.394,12.993,114.896,37.58c0.119-0.129,0.241-0.256,0.366-0.381l76.557-76.557
			c2.811-2.81,4.357-6.546,4.357-10.52c0-3.974-1.547-7.71-4.357-10.52l-10.615-10.615c-4.513-4.514-5.884-11.015-3.576-16.966
			c2.307-5.951,7.699-9.83,14.075-10.123l101.114-18.813c0.98-0.183,1.977-0.275,2.961-0.275c4.721,0,9.171,2.115,12.21,5.802
			c3.019,3.662,4.229,8.442,3.32,13.114l-19.512,100.347c-0.428,9.426-8.451,15.103-15.956,15.103
			c-4.157,0-8.108-1.661-11.125-4.676l-10.615-10.615c-2.81-2.81-6.545-4.358-10.52-4.358c-3.974,0-7.71,1.548-10.521,4.358
			l-76.555,76.557c-0.087,0.087-0.175,0.173-0.264,0.257c24.979,33.667,38.18,73.672,38.18,115.724
			C431.685,461.656,344.468,548.873,237.264,548.873z M237.264,161.031c-106.653,0-193.421,86.769-193.421,193.421
			c0,106.652,86.769,193.421,193.421,193.421c106.652,0,193.421-86.769,193.421-193.421c0-41.984-13.227-81.919-38.248-115.485
			l-0.271-0.364l0.336-0.305c0.189-0.172,0.377-0.351,0.561-0.534l76.555-76.557c3-2.999,6.987-4.651,11.229-4.651
			s8.229,1.652,11.227,4.651l10.615,10.615c2.827,2.827,6.527,4.383,10.418,4.383c7.035,0,14.557-5.319,14.966-14.221l19.52-100.42
			c0.852-4.378-0.281-8.857-3.109-12.288c-2.849-3.456-7.018-5.438-11.438-5.438c-0.923,0-1.857,0.087-2.777,0.259L429.081,62.919
			c-6.042,0.282-11.096,3.917-13.257,9.493c-2.162,5.577-0.878,11.668,3.351,15.898l10.615,10.615
			c2.999,2.999,4.65,6.986,4.65,11.227c0,4.241-1.651,8.229-4.65,11.227l-76.557,76.557c-0.22,0.22-0.428,0.447-0.632,0.677
			l-0.304,0.341l-0.367-0.271C318.525,174.051,278.874,161.031,237.264,161.031z"/>
	</g>
	<g>
		<path d="M188.639,239.398c-14.876,6.292-28.227,15.291-39.683,26.746c-11.456,11.456-20.455,24.807-26.747,39.684
			c-6.523,15.424-9.832,31.783-9.832,48.624s3.308,33.199,9.832,48.624c6.292,14.876,15.291,28.228,26.747,39.684
			c11.456,11.455,24.806,20.454,39.683,26.746c15.424,6.523,31.784,9.831,48.624,9.831c16.841,0,33.201-3.308,48.624-9.831
			c14.876-6.292,28.228-15.291,39.683-26.746c11.457-11.456,20.455-24.808,26.748-39.684c6.521-15.424,9.83-31.784,9.83-48.624
			c0-16.841-3.309-33.2-9.83-48.624c-6.293-14.876-15.291-28.228-26.748-39.683c-11.455-11.456-24.807-20.455-39.683-26.747
			c-15.423-6.524-31.784-9.832-48.624-9.832C220.423,229.567,204.063,232.875,188.639,239.398z M237.263,436.497
			c-45.312,0-82.045-36.733-82.045-82.045c0-45.312,36.733-82.045,82.045-82.045s82.045,36.733,82.045,82.045
			C319.308,399.764,282.575,436.497,237.263,436.497z"/>
		<path d="M237.263,479.837c-16.908,0-33.333-3.321-48.819-9.87c-14.935-6.317-28.339-15.352-39.841-26.854
			c-11.501-11.501-20.536-24.906-26.854-39.843c-6.55-15.487-9.871-31.912-9.871-48.818c0-16.907,3.321-33.332,9.871-48.818
			c6.317-14.937,15.352-28.342,26.854-39.843c11.502-11.502,24.907-20.537,39.841-26.853c15.485-6.55,31.909-9.871,48.815-9.871
			c16.913,0,33.338,3.321,48.823,9.871c14.936,6.317,28.34,15.352,39.841,26.854c11.5,11.498,20.535,24.902,26.855,39.842
			c6.549,15.488,9.869,31.913,9.869,48.818s-3.32,33.33-9.869,48.818c-6.319,14.938-15.354,28.344-26.855,39.843
			c-11.501,11.501-24.905,20.536-39.841,26.854C270.596,476.516,254.171,479.837,237.263,479.837z M237.263,230.067
			c-16.775,0-33.068,3.294-48.429,9.792c-14.815,6.266-28.113,15.229-39.524,26.639c-11.41,11.409-20.373,24.708-26.64,39.524
			c-6.498,15.363-9.792,31.657-9.792,48.43c0,16.771,3.294,33.065,9.792,48.43c6.267,14.816,15.23,28.114,26.64,39.524
			c11.411,11.41,24.708,20.373,39.524,26.639c15.362,6.498,31.656,9.792,48.429,9.792c16.774,0,33.068-3.294,48.429-9.792
			c14.817-6.267,28.115-15.229,39.524-26.639c11.409-11.408,20.372-24.706,26.641-39.524c6.497-15.365,9.791-31.659,9.791-48.43
			s-3.294-33.064-9.791-48.43c-6.269-14.819-15.231-28.117-26.641-39.523c-11.409-11.41-24.707-20.373-39.524-26.64
			C270.331,233.362,254.037,230.067,237.263,230.067z M237.263,436.997c-45.516,0-82.545-37.029-82.545-82.545
			s37.03-82.545,82.545-82.545s82.545,37.03,82.545,82.545S282.778,436.997,237.263,436.997z M237.263,272.907
			c-44.964,0-81.545,36.582-81.545,81.545s36.581,81.545,81.545,81.545c44.964,0,81.545-36.581,81.545-81.545
			S282.227,272.907,237.263,272.907z"/>
	</g>
</g>
</svg>
